<?xml version="1.0" encoding="UTF-8"?>
<svg width="838px" height="172px" viewBox="0 0 838 172" version="1.1" xmlns="http://www.w3.org/2000/svg" xmlns:xlink="http://www.w3.org/1999/xlink">
    <title>progress bar</title>
    <defs>
        <rect id="path-1" x="0" y="0" width="762" height="16" rx="8"></rect>
    </defs>
    <g id="Page-1" stroke="none" stroke-width="1" fill="none" fill-rule="evenodd">
        <g id="progress-bar">
            <g id="Group" transform="translate(0.000000, 28.000000)">
                <path d="M835.007116,0.5 C835.693728,0.5 836.317149,0.780313667 836.768808,1.23285472 C837.22005,1.68497755 837.5,2.30920676 837.5,2.99872479 L837.5,2.99872479 L837.5,113.001275 C837.5,113.691306 837.220858,114.31615 836.769439,114.76845 C836.318411,115.220358 835.695366,115.5 835.007116,115.5 L835.007116,115.5 L2.99288391,115.5 C2.30627193,115.5 1.68285146,115.219686 1.23119186,114.767145 C0.779949664,114.315022 0.5,113.690793 0.5,113.001275 L0.5,113.001275 L0.5,2.99872479 C0.5,2.30869385 0.779141663,1.68385038 1.23056078,1.23155028 C1.68158855,0.779642293 2.30463442,0.5 2.99288391,0.5 L2.99288391,0.5 Z" id="Row" stroke="#D2D4D4" fill="#FFFFFF"></path>
                <g id="Button---Icon" transform="translate(793.000000, 43.000000)">
                    <rect id="Button-Background---Box" x="0" y="-4.97379915e-14" width="34" height="30" rx="3"></rect>
                    <text id="Icon" font-family="SPS-Icons" font-size="16" font-weight="normal" line-spacing="18" fill="#4B5356">
                        <tspan x="11" y="21"></tspan>
                    </text>
                </g>
                <g id="Progress-Bar" transform="translate(21.000000, 51.000000)">
                    <mask id="mask-2" fill="white">
                        <use xlink:href="#path-1"></use>
                    </mask>
                    <g id="Mask"></g>
                    <rect id="Bar-Background" fill="#E9E9EA" mask="url(#mask-2)" x="0" y="0" width="762" height="16"></rect>
                    <rect id="Progress" fill="#91467F" mask="url(#mask-2)" x="0" y="0" width="381" height="16"></rect>
                </g>
                <path d="M24.264,90.144 C24.68,90.144 25.052,90.086 25.38,89.97 C25.708,89.854 25.988,89.694 26.22,89.49 C26.452,89.286 26.63,89.048 26.754,88.776 C26.878,88.504 26.94,88.212 26.94,87.9 C26.94,87.612 26.898,87.358 26.814,87.138 C26.73,86.918 26.616,86.726 26.472,86.562 C26.328,86.398 26.156,86.254 25.956,86.13 C25.756,86.006 25.544,85.896 25.32,85.8 L25.32,85.8 L24.204,85.32 C24.044,85.256 23.888,85.186 23.736,85.11 C23.584,85.034 23.444,84.946 23.316,84.846 C23.188,84.746 23.086,84.63 23.01,84.498 C22.934,84.366 22.896,84.204 22.896,84.012 C22.896,83.652 23.03,83.37 23.298,83.166 C23.566,82.962 23.92,82.86 24.36,82.86 C24.728,82.86 25.058,82.926 25.35,83.058 C25.642,83.19 25.908,83.372 26.148,83.604 L26.148,83.604 L26.688,82.956 C26.408,82.668 26.068,82.434 25.668,82.254 C25.268,82.074 24.832,81.984 24.36,81.984 C24,81.984 23.67,82.036 23.37,82.14 C23.07,82.244 22.81,82.39 22.59,82.578 C22.37,82.766 22.198,82.988 22.074,83.244 C21.95,83.5 21.888,83.776 21.888,84.072 C21.888,84.36 21.936,84.614 22.032,84.834 C22.128,85.054 22.252,85.244 22.404,85.404 C22.556,85.564 22.728,85.7 22.92,85.812 C23.112,85.924 23.3,86.02 23.484,86.1 L23.484,86.1 L24.612,86.592 C24.796,86.68 24.968,86.764 25.128,86.844 C25.288,86.924 25.426,87.014 25.542,87.114 C25.658,87.214 25.75,87.334 25.818,87.474 C25.886,87.614 25.92,87.784 25.92,87.984 C25.92,88.368 25.776,88.678 25.488,88.914 C25.2,89.15 24.796,89.268 24.276,89.268 C23.868,89.268 23.474,89.178 23.094,88.998 C22.714,88.818 22.384,88.58 22.104,88.284 L22.104,88.284 L21.504,88.98 C21.848,89.34 22.256,89.624 22.728,89.832 C23.2,90.04 23.712,90.144 24.264,90.144 Z M29.94,90.144 C30.124,90.144 30.31,90.122 30.498,90.078 C30.686,90.034 30.86,89.984 31.02,89.928 L31.02,89.928 L30.828,89.184 C30.732,89.224 30.624,89.26 30.504,89.292 C30.384,89.324 30.272,89.34 30.168,89.34 C29.832,89.34 29.598,89.242 29.466,89.046 C29.334,88.85 29.268,88.572 29.268,88.212 L29.268,88.212 L29.268,84.972 L30.84,84.972 L30.84,84.168 L29.268,84.168 L29.268,82.536 L28.44,82.536 L28.32,84.168 L27.408,84.228 L27.408,84.972 L28.272,84.972 L28.272,88.2 C28.272,88.488 28.3,88.752 28.356,88.992 C28.412,89.232 28.506,89.436 28.638,89.604 C28.77,89.772 28.942,89.904 29.154,90 C29.366,90.096 29.628,90.144 29.94,90.144 Z M34.356,90.144 C34.756,90.144 35.112,90.084 35.424,89.964 C35.736,89.844 36.02,89.704 36.276,89.544 L36.276,89.544 L35.928,88.896 C35.712,89.032 35.486,89.142 35.25,89.226 C35.014,89.31 34.756,89.352 34.476,89.352 C33.916,89.352 33.462,89.17 33.114,88.806 C32.766,88.442 32.572,87.948 32.532,87.324 L32.532,87.324 L36.468,87.324 C36.484,87.252 36.494,87.166 36.498,87.066 C36.502,86.966 36.504,86.864 36.504,86.76 C36.504,86.344 36.452,85.968 36.348,85.632 C36.244,85.296 36.094,85.008 35.898,84.768 C35.702,84.528 35.458,84.344 35.166,84.216 C34.874,84.088 34.544,84.024 34.176,84.024 C33.84,84.024 33.516,84.094 33.204,84.234 C32.892,84.374 32.614,84.576 32.37,84.84 C32.126,85.104 31.93,85.426 31.782,85.806 C31.634,86.186 31.56,86.616 31.56,87.096 C31.56,87.576 31.632,88.004 31.776,88.38 C31.92,88.756 32.118,89.074 32.37,89.334 C32.622,89.594 32.918,89.794 33.258,89.934 C33.598,90.074 33.964,90.144 34.356,90.144 Z M35.64,86.616 L32.52,86.616 C32.552,86.328 32.618,86.072 32.718,85.848 C32.818,85.624 32.944,85.434 33.096,85.278 C33.248,85.122 33.418,85.004 33.606,84.924 C33.794,84.844 33.992,84.804 34.2,84.804 C34.656,84.804 35.01,84.958 35.262,85.266 C35.514,85.574 35.64,86.024 35.64,86.616 L35.64,86.616 Z M38.928,92.46 L38.928,90.492 L38.904,89.472 C39.176,89.68 39.446,89.844 39.714,89.964 C39.982,90.084 40.252,90.144 40.524,90.144 C40.86,90.144 41.18,90.074 41.484,89.934 C41.788,89.794 42.056,89.588 42.288,89.316 C42.52,89.044 42.704,88.714 42.84,88.326 C42.976,87.938 43.044,87.496 43.044,87 C43.044,86.544 42.994,86.134 42.894,85.77 C42.794,85.406 42.648,85.094 42.456,84.834 C42.264,84.574 42.024,84.374 41.736,84.234 C41.448,84.094 41.116,84.024 40.74,84.024 C40.396,84.024 40.066,84.104 39.75,84.264 C39.434,84.424 39.144,84.616 38.88,84.84 L38.88,84.84 L38.844,84.84 L38.76,84.168 L37.944,84.168 L37.944,92.46 L38.928,92.46 Z M40.356,89.316 C40.164,89.316 39.944,89.27 39.696,89.178 C39.448,89.086 39.192,88.928 38.928,88.704 L38.928,88.704 L38.928,85.644 C39.216,85.388 39.486,85.192 39.738,85.056 C39.99,84.92 40.24,84.852 40.488,84.852 C40.76,84.852 40.994,84.904 41.19,85.008 C41.386,85.112 41.546,85.258 41.67,85.446 C41.794,85.634 41.884,85.86 41.94,86.124 C41.996,86.388 42.024,86.68 42.024,87 C42.024,87.36 41.982,87.684 41.898,87.972 C41.814,88.26 41.698,88.502 41.55,88.698 C41.402,88.894 41.226,89.046 41.022,89.154 C40.818,89.262 40.596,89.316 40.356,89.316 Z M48.852,90.144 C49.204,90.144 49.532,90.094 49.836,89.994 C50.14,89.894 50.406,89.75 50.634,89.562 C50.862,89.374 51.042,89.144 51.174,88.872 C51.306,88.6 51.372,88.296 51.372,87.96 C51.372,87.696 51.33,87.456 51.246,87.24 C51.162,87.024 51.044,86.834 50.892,86.67 C50.74,86.506 50.564,86.37 50.364,86.262 C50.164,86.154 49.948,86.072 49.716,86.016 L49.716,86.016 L49.716,85.968 C50.132,85.808 50.468,85.58 50.724,85.284 C50.98,84.988 51.108,84.608 51.108,84.144 C51.108,83.832 51.052,83.556 50.94,83.316 C50.828,83.076 50.67,82.874 50.466,82.71 C50.262,82.546 50.02,82.42 49.74,82.332 C49.46,82.244 49.152,82.2 48.816,82.2 C48.36,82.2 47.954,82.29 47.598,82.47 C47.242,82.65 46.916,82.88 46.62,83.16 L46.62,83.16 L47.148,83.784 C47.38,83.552 47.63,83.364 47.898,83.22 C48.166,83.076 48.46,83.004 48.78,83.004 C49.188,83.004 49.51,83.112 49.746,83.328 C49.982,83.544 50.1,83.84 50.1,84.216 C50.1,84.416 50.064,84.604 49.992,84.78 C49.92,84.956 49.798,85.108 49.626,85.236 C49.454,85.364 49.23,85.464 48.954,85.536 C48.678,85.608 48.336,85.644 47.928,85.644 L47.928,85.644 L47.928,86.4 C48.384,86.4 48.768,86.436 49.08,86.508 C49.392,86.58 49.644,86.684 49.836,86.82 C50.028,86.956 50.166,87.118 50.25,87.306 C50.334,87.494 50.376,87.7 50.376,87.924 C50.376,88.356 50.228,88.698 49.932,88.95 C49.636,89.202 49.256,89.328 48.792,89.328 C48.336,89.328 47.954,89.236 47.646,89.052 C47.338,88.868 47.068,88.656 46.836,88.416 L46.836,88.416 L46.332,89.064 C46.46,89.208 46.606,89.344 46.77,89.472 C46.934,89.6 47.12,89.714 47.328,89.814 C47.536,89.914 47.766,89.994 48.018,90.054 C48.27,90.114 48.548,90.144 48.852,90.144 Z M57.636,90.144 C57.996,90.144 58.338,90.076 58.662,89.94 C58.986,89.804 59.272,89.606 59.52,89.346 C59.768,89.086 59.966,88.766 60.114,88.386 C60.262,88.006 60.336,87.576 60.336,87.096 C60.336,86.608 60.262,86.174 60.114,85.794 C59.966,85.414 59.768,85.092 59.52,84.828 C59.272,84.564 58.986,84.364 58.662,84.228 C58.338,84.092 57.996,84.024 57.636,84.024 C57.276,84.024 56.934,84.092 56.61,84.228 C56.286,84.364 56,84.564 55.752,84.828 C55.504,85.092 55.306,85.414 55.158,85.794 C55.01,86.174 54.936,86.608 54.936,87.096 C54.936,87.576 55.01,88.006 55.158,88.386 C55.306,88.766 55.504,89.086 55.752,89.346 C56,89.606 56.286,89.804 56.61,89.94 C56.934,90.076 57.276,90.144 57.636,90.144 Z M57.636,89.328 C57.388,89.328 57.16,89.274 56.952,89.166 C56.744,89.058 56.566,88.906 56.418,88.71 C56.27,88.514 56.156,88.28 56.076,88.008 C55.996,87.736 55.956,87.432 55.956,87.096 C55.956,86.76 55.996,86.454 56.076,86.178 C56.156,85.902 56.27,85.664 56.418,85.464 C56.566,85.264 56.744,85.11 56.952,85.002 C57.16,84.894 57.388,84.84 57.636,84.84 C57.884,84.84 58.112,84.894 58.32,85.002 C58.528,85.11 58.706,85.264 58.854,85.464 C59.002,85.664 59.116,85.902 59.196,86.178 C59.276,86.454 59.316,86.76 59.316,87.096 C59.316,87.432 59.276,87.736 59.196,88.008 C59.116,88.28 59.002,88.514 58.854,88.71 C58.706,88.906 58.528,89.058 58.32,89.166 C58.112,89.274 57.884,89.328 57.636,89.328 Z M63.024,90 L63.024,84.972 L64.26,84.972 L64.26,84.168 L63.024,84.168 L63.024,83.244 C63.024,82.492 63.296,82.116 63.84,82.116 C64.064,82.116 64.284,82.164 64.5,82.26 L64.5,82.26 L64.716,81.504 C64.58,81.448 64.43,81.402 64.266,81.366 C64.102,81.33 63.928,81.312 63.744,81.312 C63.16,81.312 62.73,81.484 62.454,81.828 C62.178,82.172 62.04,82.644 62.04,83.244 L62.04,83.244 L62.04,84.168 L61.248,84.228 L61.248,84.972 L62.04,84.972 L62.04,90 L63.024,90 Z M69.6,90.144 C69.936,90.144 70.258,90.086 70.566,89.97 C70.874,89.854 71.148,89.686 71.388,89.466 C71.628,89.246 71.82,88.976 71.964,88.656 C72.108,88.336 72.18,87.968 72.18,87.552 C72.18,87.136 72.118,86.778 71.994,86.478 C71.87,86.178 71.7,85.93 71.484,85.734 C71.268,85.538 71.016,85.392 70.728,85.296 C70.44,85.2 70.132,85.152 69.804,85.152 C69.572,85.152 69.364,85.18 69.18,85.236 C68.996,85.292 68.812,85.368 68.628,85.464 L68.628,85.464 L68.832,83.196 L71.796,83.196 L71.796,82.344 L67.968,82.344 L67.716,86.028 L68.244,86.364 C68.476,86.212 68.686,86.096 68.874,86.016 C69.062,85.936 69.288,85.896 69.552,85.896 C70.048,85.896 70.444,86.044 70.74,86.34 C71.036,86.636 71.184,87.048 71.184,87.576 C71.184,87.84 71.14,88.08 71.052,88.296 C70.964,88.512 70.844,88.696 70.692,88.848 C70.54,89 70.362,89.118 70.158,89.202 C69.954,89.286 69.736,89.328 69.504,89.328 C69.056,89.328 68.678,89.24 68.37,89.064 C68.062,88.888 67.796,88.684 67.572,88.452 L67.572,88.452 L67.092,89.1 C67.22,89.236 67.366,89.366 67.53,89.49 C67.694,89.614 67.878,89.724 68.082,89.82 C68.286,89.916 68.514,89.994 68.766,90.054 C69.018,90.114 69.296,90.144 69.6,90.144 Z M74.256,85.812 C74.448,85.812 74.614,85.742 74.754,85.602 C74.894,85.462 74.964,85.284 74.964,85.068 C74.964,84.836 74.894,84.65 74.754,84.51 C74.614,84.37 74.448,84.3 74.256,84.3 C74.056,84.3 73.886,84.37 73.746,84.51 C73.606,84.65 73.536,84.836 73.536,85.068 C73.536,85.284 73.606,85.462 73.746,85.602 C73.886,85.742 74.056,85.812 74.256,85.812 Z M74.256,90.144 C74.448,90.144 74.614,90.074 74.754,89.934 C74.894,89.794 74.964,89.616 74.964,89.4 C74.964,89.168 74.894,88.982 74.754,88.842 C74.614,88.702 74.448,88.632 74.256,88.632 C74.056,88.632 73.886,88.702 73.746,88.842 C73.606,88.982 73.536,89.168 73.536,89.4 C73.536,89.616 73.606,89.794 73.746,89.934 C73.886,90.074 74.056,90.144 74.256,90.144 Z M81.828,90 L84.324,82.128 L83.304,82.128 L82.044,86.376 C81.908,86.848 81.784,87.284 81.672,87.684 L81.585,87.99 C81.495,88.302 81.396,88.632 81.288,88.98 L81.288,88.98 L81.24,88.98 C81.088,88.516 80.958,88.084 80.85,87.684 C80.742,87.284 80.616,86.848 80.472,86.376 L80.472,86.376 L79.212,82.128 L78.144,82.128 L80.664,90 L81.828,90 Z M87.492,90.144 C87.892,90.144 88.248,90.084 88.56,89.964 C88.872,89.844 89.156,89.704 89.412,89.544 L89.412,89.544 L89.064,88.896 C88.848,89.032 88.622,89.142 88.386,89.226 C88.15,89.31 87.892,89.352 87.612,89.352 C87.052,89.352 86.598,89.17 86.25,88.806 C85.902,88.442 85.708,87.948 85.668,87.324 L85.668,87.324 L89.604,87.324 C89.62,87.252 89.63,87.166 89.634,87.066 C89.638,86.966 89.64,86.864 89.64,86.76 C89.64,86.344 89.588,85.968 89.484,85.632 C89.38,85.296 89.23,85.008 89.034,84.768 C88.838,84.528 88.594,84.344 88.302,84.216 C88.01,84.088 87.68,84.024 87.312,84.024 C86.976,84.024 86.652,84.094 86.34,84.234 C86.028,84.374 85.75,84.576 85.506,84.84 C85.262,85.104 85.066,85.426 84.918,85.806 C84.77,86.186 84.696,86.616 84.696,87.096 C84.696,87.576 84.768,88.004 84.912,88.38 C85.056,88.756 85.254,89.074 85.506,89.334 C85.758,89.594 86.054,89.794 86.394,89.934 C86.734,90.074 87.1,90.144 87.492,90.144 Z M88.776,86.616 L85.656,86.616 C85.688,86.328 85.754,86.072 85.854,85.848 C85.954,85.624 86.08,85.434 86.232,85.278 C86.384,85.122 86.554,85.004 86.742,84.924 C86.93,84.844 87.128,84.804 87.336,84.804 C87.792,84.804 88.146,84.958 88.398,85.266 C88.65,85.574 88.776,86.024 88.776,86.616 L88.776,86.616 Z M92.064,90 L92.064,86.256 C92.264,85.76 92.498,85.412 92.766,85.212 C93.034,85.012 93.292,84.912 93.54,84.912 C93.66,84.912 93.76,84.92 93.84,84.936 C93.92,84.952 94.008,84.976 94.104,85.008 L94.104,85.008 L94.296,84.144 C94.112,84.064 93.904,84.024 93.672,84.024 C93.336,84.024 93.026,84.132 92.742,84.348 C92.458,84.564 92.216,84.856 92.016,85.224 L92.016,85.224 L91.98,85.224 L91.896,84.168 L91.08,84.168 L91.08,90 L92.064,90 Z M95.748,82.968 C95.94,82.968 96.102,82.908 96.234,82.788 C96.366,82.668 96.432,82.516 96.432,82.332 C96.432,82.14 96.366,81.986 96.234,81.87 C96.102,81.754 95.94,81.696 95.748,81.696 C95.556,81.696 95.394,81.754 95.262,81.87 C95.13,81.986 95.064,82.14 95.064,82.332 C95.064,82.516 95.13,82.668 95.262,82.788 C95.394,82.908 95.556,82.968 95.748,82.968 Z M96.228,90 L96.228,84.168 L95.244,84.168 L95.244,90 L96.228,90 Z M99.348,90 L99.348,84.972 L100.584,84.972 L100.584,84.168 L99.348,84.168 L99.348,83.244 C99.348,82.492 99.62,82.116 100.164,82.116 C100.388,82.116 100.608,82.164 100.824,82.26 L100.824,82.26 L101.04,81.504 C100.904,81.448 100.754,81.402 100.59,81.366 C100.426,81.33 100.252,81.312 100.068,81.312 C99.484,81.312 99.054,81.484 98.778,81.828 C98.502,82.172 98.364,82.644 98.364,83.244 L98.364,83.244 L98.364,84.168 L97.572,84.228 L97.572,84.972 L98.364,84.972 L98.364,90 L99.348,90 Z M101.796,92.508 C102.092,92.508 102.352,92.456 102.576,92.352 C102.8,92.248 103,92.106 103.176,91.926 C103.352,91.746 103.504,91.532 103.632,91.284 C103.76,91.036 103.876,90.768 103.98,90.48 L103.98,90.48 L106.176,84.168 L105.216,84.168 L104.172,87.396 C104.092,87.652 104.012,87.924 103.932,88.212 C103.852,88.5 103.768,88.776 103.68,89.04 L103.68,89.04 L103.632,89.04 C103.544,88.768 103.45,88.49 103.35,88.206 C103.25,87.922 103.156,87.652 103.068,87.396 L103.068,87.396 L101.88,84.168 L100.86,84.168 L103.2,90.012 L103.068,90.444 C102.948,90.804 102.782,91.102 102.57,91.338 C102.358,91.574 102.084,91.692 101.748,91.692 C101.676,91.692 101.6,91.682 101.52,91.662 C101.44,91.642 101.368,91.624 101.304,91.608 L101.304,91.608 L101.112,92.388 C101.208,92.428 101.312,92.458 101.424,92.478 C101.536,92.498 101.66,92.508 101.796,92.508 Z M107.808,82.968 C108,82.968 108.162,82.908 108.294,82.788 C108.426,82.668 108.492,82.516 108.492,82.332 C108.492,82.14 108.426,81.986 108.294,81.87 C108.162,81.754 108,81.696 107.808,81.696 C107.616,81.696 107.454,81.754 107.322,81.87 C107.19,81.986 107.124,82.14 107.124,82.332 C107.124,82.516 107.19,82.668 107.322,82.788 C107.454,82.908 107.616,82.968 107.808,82.968 Z M108.288,90 L108.288,84.168 L107.304,84.168 L107.304,90 L108.288,90 Z M111.24,90 L111.24,85.776 C111.536,85.48 111.8,85.256 112.032,85.104 C112.264,84.952 112.532,84.876 112.836,84.876 C113.22,84.876 113.5,84.998 113.676,85.242 C113.852,85.486 113.94,85.884 113.94,86.436 L113.94,86.436 L113.94,90 L114.924,90 L114.924,86.304 C114.924,85.552 114.782,84.984 114.498,84.6 C114.214,84.216 113.764,84.024 113.148,84.024 C112.74,84.024 112.382,84.118 112.074,84.306 C111.766,84.494 111.472,84.728 111.192,85.008 L111.192,85.008 L111.156,85.008 L111.072,84.168 L110.256,84.168 L110.256,90 L111.24,90 Z M118.788,92.688 C119.244,92.688 119.654,92.634 120.018,92.526 C120.382,92.418 120.692,92.272 120.948,92.088 C121.204,91.904 121.4,91.69 121.536,91.446 C121.672,91.202 121.74,90.944 121.74,90.672 C121.74,90.184 121.57,89.83 121.23,89.61 C120.89,89.39 120.38,89.28 119.7,89.28 L119.7,89.28 L118.572,89.28 C118.172,89.28 117.9,89.22 117.756,89.1 C117.612,88.98 117.54,88.828 117.54,88.644 C117.54,88.484 117.576,88.35 117.648,88.242 C117.72,88.134 117.808,88.036 117.912,87.948 C118.048,88.012 118.192,88.062 118.344,88.098 C118.496,88.134 118.644,88.152 118.788,88.152 C119.084,88.152 119.362,88.104 119.622,88.008 C119.882,87.912 120.108,87.778 120.3,87.606 C120.492,87.434 120.644,87.222 120.756,86.97 C120.868,86.718 120.924,86.436 120.924,86.124 C120.924,85.876 120.878,85.648 120.786,85.44 C120.694,85.232 120.58,85.06 120.444,84.924 L120.444,84.924 L121.644,84.924 L121.644,84.168 L119.616,84.168 C119.504,84.128 119.378,84.094 119.238,84.066 C119.098,84.038 118.948,84.024 118.788,84.024 C118.492,84.024 118.21,84.072 117.942,84.168 C117.674,84.264 117.44,84.402 117.24,84.582 C117.04,84.762 116.882,84.98 116.766,85.236 C116.65,85.492 116.592,85.78 116.592,86.1 C116.592,86.452 116.67,86.762 116.826,87.03 C116.982,87.298 117.156,87.512 117.348,87.672 L117.348,87.672 L117.348,87.72 C117.196,87.824 117.052,87.968 116.916,88.152 C116.78,88.336 116.712,88.552 116.712,88.8 C116.712,89.032 116.762,89.226 116.862,89.382 C116.962,89.538 117.084,89.66 117.228,89.748 L117.228,89.748 L117.228,89.796 C116.964,89.98 116.756,90.184 116.604,90.408 C116.452,90.632 116.376,90.868 116.376,91.116 C116.376,91.372 116.434,91.596 116.55,91.788 C116.666,91.98 116.83,92.144 117.042,92.28 C117.254,92.416 117.508,92.518 117.804,92.586 C118.1,92.654 118.428,92.688 118.788,92.688 Z M118.788,87.492 C118.62,87.492 118.462,87.46 118.314,87.396 C118.166,87.332 118.034,87.24 117.918,87.12 C117.802,87 117.712,86.854 117.648,86.682 C117.584,86.51 117.552,86.316 117.552,86.1 C117.552,85.668 117.672,85.334 117.912,85.098 C118.152,84.862 118.444,84.744 118.788,84.744 C119.132,84.744 119.424,84.862 119.664,85.098 C119.904,85.334 120.024,85.668 120.024,86.1 C120.024,86.316 119.992,86.51 119.928,86.682 C119.864,86.854 119.774,87 119.658,87.12 C119.542,87.24 119.41,87.332 119.262,87.396 C119.114,87.46 118.956,87.492 118.788,87.492 Z M118.932,92.004 C118.404,92.004 117.99,91.912 117.69,91.728 C117.39,91.544 117.24,91.296 117.24,90.984 C117.24,90.816 117.288,90.648 117.384,90.48 C117.48,90.312 117.632,90.152 117.84,90 C117.968,90.04 118.098,90.066 118.23,90.078 C118.362,90.09 118.484,90.096 118.596,90.096 L118.596,90.096 L119.604,90.096 C119.988,90.096 120.28,90.148 120.48,90.252 C120.68,90.356 120.78,90.544 120.78,90.816 C120.78,90.968 120.736,91.116 120.648,91.26 C120.56,91.404 120.436,91.53 120.276,91.638 C120.116,91.746 119.922,91.834 119.694,91.902 C119.466,91.97 119.212,92.004 118.932,92.004 Z M126.36,90 L126.36,86.292 L130.02,86.292 L130.02,90 L131.028,90 L131.028,82.128 L130.02,82.128 L130.02,85.428 L126.36,85.428 L126.36,82.128 L125.364,82.128 L125.364,90 L126.36,90 Z M135.456,90.144 C135.856,90.144 136.212,90.084 136.524,89.964 C136.836,89.844 137.12,89.704 137.376,89.544 L137.376,89.544 L137.028,88.896 C136.812,89.032 136.586,89.142 136.35,89.226 C136.114,89.31 135.856,89.352 135.576,89.352 C135.016,89.352 134.562,89.17 134.214,88.806 C133.866,88.442 133.672,87.948 133.632,87.324 L133.632,87.324 L137.568,87.324 C137.584,87.252 137.594,87.166 137.598,87.066 C137.602,86.966 137.604,86.864 137.604,86.76 C137.604,86.344 137.552,85.968 137.448,85.632 C137.344,85.296 137.194,85.008 136.998,84.768 C136.802,84.528 136.558,84.344 136.266,84.216 C135.974,84.088 135.644,84.024 135.276,84.024 C134.94,84.024 134.616,84.094 134.304,84.234 C133.992,84.374 133.714,84.576 133.47,84.84 C133.226,85.104 133.03,85.426 132.882,85.806 C132.734,86.186 132.66,86.616 132.66,87.096 C132.66,87.576 132.732,88.004 132.876,88.38 C133.02,88.756 133.218,89.074 133.47,89.334 C133.722,89.594 134.018,89.794 134.358,89.934 C134.698,90.074 135.064,90.144 135.456,90.144 Z M136.74,86.616 L133.62,86.616 C133.652,86.328 133.718,86.072 133.818,85.848 C133.918,85.624 134.044,85.434 134.196,85.278 C134.348,85.122 134.518,85.004 134.706,84.924 C134.894,84.844 135.092,84.804 135.3,84.804 C135.756,84.804 136.11,84.958 136.362,85.266 C136.614,85.574 136.74,86.024 136.74,86.616 L136.74,86.616 Z M140.22,90.144 C140.588,90.144 140.932,90.062 141.252,89.898 C141.572,89.734 141.872,89.536 142.152,89.304 L142.152,89.304 L142.188,89.304 L142.272,90 L143.088,90 L143.088,86.424 C143.088,85.696 142.928,85.114 142.608,84.678 C142.288,84.242 141.772,84.024 141.06,84.024 C140.588,84.024 140.156,84.106 139.764,84.27 C139.372,84.434 139.04,84.604 138.768,84.78 L138.768,84.78 L139.152,85.464 C139.384,85.304 139.648,85.16 139.944,85.032 C140.24,84.904 140.556,84.84 140.892,84.84 C141.132,84.84 141.33,84.882 141.486,84.966 C141.642,85.05 141.764,85.16 141.852,85.296 C141.94,85.432 142.002,85.588 142.038,85.764 C142.074,85.94 142.092,86.12 142.092,86.304 C140.844,86.44 139.936,86.678 139.368,87.018 C138.8,87.358 138.516,87.848 138.516,88.488 C138.516,89.016 138.678,89.424 139.002,89.712 C139.326,90 139.732,90.144 140.22,90.144 Z M140.508,89.352 C140.22,89.352 139.976,89.28 139.776,89.136 C139.576,88.992 139.476,88.752 139.476,88.416 C139.476,88.232 139.522,88.062 139.614,87.906 C139.706,87.75 139.854,87.612 140.058,87.492 C140.262,87.372 140.53,87.268 140.862,87.18 C141.194,87.092 141.604,87.016 142.092,86.952 L142.092,86.952 L142.092,88.572 C141.812,88.828 141.548,89.022 141.3,89.154 C141.052,89.286 140.788,89.352 140.508,89.352 Z M146.916,90.144 C147.26,90.144 147.582,90.062 147.882,89.898 C148.182,89.734 148.448,89.54 148.68,89.316 L148.68,89.316 L148.716,89.316 L148.8,90 L149.616,90 L149.616,81.456 L148.62,81.456 L148.62,83.7 L148.668,84.696 C148.412,84.488 148.16,84.324 147.912,84.204 C147.664,84.084 147.372,84.024 147.036,84.024 C146.7,84.024 146.38,84.096 146.076,84.24 C145.772,84.384 145.504,84.588 145.272,84.852 C145.04,85.116 144.854,85.438 144.714,85.818 C144.574,86.198 144.504,86.624 144.504,87.096 C144.504,88.072 144.722,88.824 145.158,89.352 C145.594,89.88 146.18,90.144 146.916,90.144 Z M147.132,89.316 C146.62,89.316 146.224,89.12 145.944,88.728 C145.664,88.336 145.524,87.788 145.524,87.084 C145.524,86.748 145.568,86.444 145.656,86.172 C145.744,85.9 145.864,85.666 146.016,85.47 C146.168,85.274 146.346,85.122 146.55,85.014 C146.754,84.906 146.972,84.852 147.204,84.852 C147.444,84.852 147.678,84.898 147.906,84.99 C148.134,85.082 148.372,85.24 148.62,85.464 L148.62,85.464 L148.62,88.512 C148.38,88.784 148.14,88.986 147.9,89.118 C147.66,89.25 147.404,89.316 147.132,89.316 Z M153.948,90.144 C154.348,90.144 154.704,90.084 155.016,89.964 C155.328,89.844 155.612,89.704 155.868,89.544 L155.868,89.544 L155.52,88.896 C155.304,89.032 155.078,89.142 154.842,89.226 C154.606,89.31 154.348,89.352 154.068,89.352 C153.508,89.352 153.054,89.17 152.706,88.806 C152.358,88.442 152.164,87.948 152.124,87.324 L152.124,87.324 L156.06,87.324 C156.076,87.252 156.086,87.166 156.09,87.066 C156.094,86.966 156.096,86.864 156.096,86.76 C156.096,86.344 156.044,85.968 155.94,85.632 C155.836,85.296 155.686,85.008 155.49,84.768 C155.294,84.528 155.05,84.344 154.758,84.216 C154.466,84.088 154.136,84.024 153.768,84.024 C153.432,84.024 153.108,84.094 152.796,84.234 C152.484,84.374 152.206,84.576 151.962,84.84 C151.718,85.104 151.522,85.426 151.374,85.806 C151.226,86.186 151.152,86.616 151.152,87.096 C151.152,87.576 151.224,88.004 151.368,88.38 C151.512,88.756 151.71,89.074 151.962,89.334 C152.214,89.594 152.51,89.794 152.85,89.934 C153.19,90.074 153.556,90.144 153.948,90.144 Z M155.232,86.616 L152.112,86.616 C152.144,86.328 152.21,86.072 152.31,85.848 C152.41,85.624 152.536,85.434 152.688,85.278 C152.84,85.122 153.01,85.004 153.198,84.924 C153.386,84.844 153.584,84.804 153.792,84.804 C154.248,84.804 154.602,84.958 154.854,85.266 C155.106,85.574 155.232,86.024 155.232,86.616 L155.232,86.616 Z M158.52,90 L158.52,86.256 C158.72,85.76 158.954,85.412 159.222,85.212 C159.49,85.012 159.748,84.912 159.996,84.912 C160.116,84.912 160.216,84.92 160.296,84.936 C160.376,84.952 160.464,84.976 160.56,85.008 L160.56,85.008 L160.752,84.144 C160.568,84.064 160.36,84.024 160.128,84.024 C159.792,84.024 159.482,84.132 159.198,84.348 C158.914,84.564 158.672,84.856 158.472,85.224 L158.472,85.224 L158.436,85.224 L158.352,84.168 L157.536,84.168 L157.536,90 L158.52,90 Z M163.176,90.144 C163.52,90.144 163.826,90.098 164.094,90.006 C164.362,89.914 164.586,89.788 164.766,89.628 C164.946,89.468 165.082,89.284 165.174,89.076 C165.266,88.868 165.312,88.644 165.312,88.404 C165.312,88.132 165.258,87.9 165.15,87.708 C165.042,87.516 164.904,87.354 164.736,87.222 C164.568,87.09 164.378,86.98 164.166,86.892 C163.954,86.804 163.744,86.72 163.536,86.64 C163.368,86.576 163.206,86.514 163.05,86.454 C162.894,86.394 162.756,86.326 162.636,86.25 C162.516,86.174 162.42,86.086 162.348,85.986 C162.276,85.886 162.24,85.768 162.24,85.632 C162.24,85.408 162.326,85.212 162.498,85.044 C162.67,84.876 162.94,84.792 163.308,84.792 C163.564,84.792 163.8,84.84 164.016,84.936 C164.232,85.032 164.44,85.156 164.64,85.308 L164.64,85.308 L165.108,84.684 C164.884,84.5 164.618,84.344 164.31,84.216 C164.002,84.088 163.664,84.024 163.296,84.024 C162.984,84.024 162.704,84.066 162.456,84.15 C162.208,84.234 161.998,84.35 161.826,84.498 C161.654,84.646 161.522,84.822 161.43,85.026 C161.338,85.23 161.292,85.448 161.292,85.68 C161.292,85.928 161.344,86.14 161.448,86.316 C161.552,86.492 161.686,86.646 161.85,86.778 C162.014,86.91 162.2,87.022 162.408,87.114 C162.616,87.206 162.824,87.288 163.032,87.36 L163.032,87.36 L163.512,87.552 C163.672,87.616 163.814,87.69 163.938,87.774 C164.062,87.858 164.164,87.956 164.244,88.068 C164.324,88.18 164.364,88.312 164.364,88.464 C164.364,88.72 164.268,88.936 164.076,89.112 C163.884,89.288 163.596,89.376 163.212,89.376 C162.86,89.376 162.55,89.312 162.282,89.184 C162.014,89.056 161.752,88.888 161.496,88.68 L161.496,88.68 L161.004,89.34 C161.284,89.572 161.612,89.764 161.988,89.916 C162.364,90.068 162.76,90.144 163.176,90.144 Z" id="Step3of5:VerifyingHeaders" fill="#4B5356" fill-rule="nonzero"></path>
                <path d="M760.236,36.168 C760.646667,36.168 761.041,36.1003333 761.419,35.965 C761.797,35.8296667 762.130667,35.6313333 762.42,35.37 C762.709333,35.1086667 762.940333,34.7866667 763.113,34.404 C763.285667,34.0213333 763.372,33.5873333 763.372,33.102 C763.372,32.626 763.297333,32.213 763.148,31.863 C762.998667,31.513 762.798,31.2236667 762.546,30.995 C762.294,30.7663333 761.997667,30.596 761.657,30.484 C761.316333,30.372 760.954667,30.316 760.572,30.316 C760.338667,30.316 760.131,30.3416667 759.949,30.393 C759.767,30.4443333 759.582667,30.5166667 759.396,30.61 L759.396,30.61 L759.578,28.454 L762.938,28.454 L762.938,27.096 L758.178,27.096 L757.912,31.492 L758.682,31.982 C758.952667,31.8046667 759.186,31.6763333 759.382,31.597 C759.578,31.5176667 759.820667,31.478 760.11,31.478 C760.604667,31.478 761.001333,31.6226667 761.3,31.912 C761.598667,32.2013333 761.748,32.612 761.748,33.144 C761.748,33.6853333 761.587,34.1053333 761.265,34.404 C760.943,34.7026667 760.53,34.852 760.026,34.852 C759.578,34.852 759.186,34.7563333 758.85,34.565 C758.514,34.3736667 758.210667,34.152 757.94,33.9 L757.94,33.9 L757.198,34.936 C757.524667,35.2626667 757.933,35.5496667 758.423,35.797 C758.913,36.0443333 759.517333,36.168 760.236,36.168 Z M767.628,36.168 C768.561333,36.168 769.298667,35.769 769.84,34.971 C770.381333,34.173 770.652,33.018 770.652,31.506 C770.652,30.0033333 770.381333,28.8646667 769.84,28.09 C769.298667,27.3153333 768.561333,26.928 767.628,26.928 C766.694667,26.928 765.957333,27.313 765.416,28.083 C764.874667,28.853 764.604,29.994 764.604,31.506 C764.604,33.018 764.874667,34.173 765.416,34.971 C765.957333,35.769 766.694667,36.168 767.628,36.168 Z M767.628,34.908 C767.413333,34.908 767.215,34.8496667 767.033,34.733 C766.851,34.6163333 766.694667,34.4226667 766.564,34.152 C766.433333,33.8813333 766.330667,33.5313333 766.256,33.102 C766.181333,32.6726667 766.144,32.1406667 766.144,31.506 C766.144,30.8806667 766.181333,30.3556667 766.256,29.931 C766.330667,29.5063333 766.433333,29.1633333 766.564,28.902 C766.694667,28.6406667 766.851,28.4563333 767.033,28.349 C767.215,28.2416667 767.413333,28.188 767.628,28.188 C767.842667,28.188 768.041,28.2416667 768.223,28.349 C768.405,28.4563333 768.561333,28.6406667 768.692,28.902 C768.822667,29.1633333 768.925333,29.5063333 769,29.931 C769.074667,30.3556667 769.112,30.8806667 769.112,31.506 C769.112,32.1406667 769.074667,32.6726667 769,33.102 C768.925333,33.5313333 768.822667,33.8813333 768.692,34.152 C768.561333,34.4226667 768.405,34.6163333 768.223,34.733 C768.041,34.8496667 767.842667,34.908 767.628,34.908 Z M773.83,32.472 C774.474,32.472 774.999,32.2176667 775.405,31.709 C775.811,31.2003333 776.014,30.484 776.014,29.56 C776.014,28.636 775.811,27.9243333 775.405,27.425 C774.999,26.9256667 774.474,26.676 773.83,26.676 C773.186,26.676 772.661,26.9256667 772.255,27.425 C771.849,27.9243333 771.646,28.636 771.646,29.56 C771.646,30.484 771.849,31.2003333 772.255,31.709 C772.661,32.2176667 773.186,32.472 773.83,32.472 Z M775.104,36.168 L780.088,26.676 L779.108,26.676 L774.11,36.168 L775.104,36.168 Z M773.83,31.534 C773.531333,31.534 773.286333,31.3776667 773.095,31.065 C772.903667,30.7523333 772.808,30.2506667 772.808,29.56 C772.808,28.8693333 772.903667,28.3723333 773.095,28.069 C773.286333,27.7656667 773.531333,27.614 773.83,27.614 C774.128667,27.614 774.373667,27.7656667 774.565,28.069 C774.756333,28.3723333 774.852,28.8693333 774.852,29.56 C774.852,30.2506667 774.756333,30.7523333 774.565,31.065 C774.373667,31.3776667 774.128667,31.534 773.83,31.534 Z M780.396,36.168 C781.04,36.168 781.565,35.9136667 781.971,35.405 C782.377,34.8963333 782.58,34.18 782.58,33.256 C782.58,32.332 782.377,31.6203333 781.971,31.121 C781.565,30.6216667 781.04,30.372 780.396,30.372 C779.752,30.372 779.227,30.6216667 778.821,31.121 C778.415,31.6203333 778.212,32.332 778.212,33.256 C778.212,34.18 778.415,34.8963333 778.821,35.405 C779.227,35.9136667 779.752,36.168 780.396,36.168 Z M780.396,35.23 C780.097333,35.23 779.852333,35.0736667 779.661,34.761 C779.469667,34.4483333 779.374,33.9466667 779.374,33.256 C779.374,32.5653333 779.469667,32.0683333 779.661,31.765 C779.852333,31.4616667 780.097333,31.31 780.396,31.31 C780.694667,31.31 780.939667,31.4616667 781.131,31.765 C781.322333,32.0683333 781.418,32.5653333 781.418,33.256 C781.418,33.9466667 781.322333,34.4483333 781.131,34.761 C780.939667,35.0736667 780.694667,35.23 780.396,35.23 Z" id="50%" fill="#91467F" fill-rule="nonzero"></path>
                <path d="M23.422,36 L23.422,31.884 L26.922,31.884 L26.922,30.904 L23.422,30.904 L23.422,27.796 L27.552,27.796 L27.552,26.816 L22.26,26.816 L22.26,36 L23.422,36 Z M29.652,27.796 C29.876,27.796 30.065,27.726 30.219,27.586 C30.373,27.446 30.45,27.2686667 30.45,27.054 C30.45,26.83 30.373,26.6503333 30.219,26.515 C30.065,26.3796667 29.876,26.312 29.652,26.312 C29.428,26.312 29.239,26.3796667 29.085,26.515 C28.931,26.6503333 28.854,26.83 28.854,27.054 C28.854,27.2686667 28.931,27.446 29.085,27.586 C29.239,27.726 29.428,27.796 29.652,27.796 Z M30.212,36 L30.212,29.196 L29.064,29.196 L29.064,36 L30.212,36 Z M33.726,36.168 C33.8846667,36.168 34.0153333,36.1586667 34.118,36.14 C34.2206667,36.1213333 34.3093333,36.0933333 34.384,36.056 L34.384,36.056 L34.23,35.188 C34.1646667,35.2066667 34.1156667,35.216 34.083,35.216 L34.083,35.216 L33.978,35.216 C33.894,35.216 33.8193333,35.1786667 33.754,35.104 C33.6886667,35.0293333 33.656,34.8986667 33.656,34.712 L33.656,34.712 L33.656,26.032 L32.508,26.032 L32.508,34.628 C32.508,35.132 32.6013333,35.5146667 32.788,35.776 C32.9746667,36.0373333 33.2873333,36.168 33.726,36.168 Z M38.836,36.168 C39.3026667,36.168 39.718,36.098 40.082,35.958 C40.446,35.818 40.7773333,35.6546667 41.076,35.468 L41.076,35.468 L40.67,34.712 C40.418,34.8706667 40.1543333,34.999 39.879,35.097 C39.6036667,35.195 39.3026667,35.244 38.976,35.244 C38.3226667,35.244 37.793,35.0316667 37.387,34.607 C36.981,34.1823333 36.7546667,33.606 36.708,32.878 L36.708,32.878 L41.3,32.878 C41.3186667,32.794 41.3303333,32.6936667 41.335,32.577 C41.3396667,32.4603333 41.342,32.3413333 41.342,32.22 C41.342,31.7346667 41.2813333,31.296 41.16,30.904 C41.0386667,30.512 40.8636667,30.176 40.635,29.896 C40.4063333,29.616 40.1216667,29.4013333 39.781,29.252 C39.4403333,29.1026667 39.0553333,29.028 38.626,29.028 C38.234,29.028 37.856,29.1096667 37.492,29.273 C37.128,29.4363333 36.8036667,29.672 36.519,29.98 C36.2343333,30.288 36.0056667,30.6636667 35.833,31.107 C35.6603333,31.5503333 35.574,32.052 35.574,32.612 C35.574,33.172 35.658,33.6713333 35.826,34.11 C35.994,34.5486667 36.225,34.9196667 36.519,35.223 C36.813,35.5263333 37.1583333,35.7596667 37.555,35.923 C37.9516667,36.0863333 38.3786667,36.168 38.836,36.168 Z M40.334,32.052 L36.694,32.052 C36.7313333,31.716 36.8083333,31.4173333 36.925,31.156 C37.0416667,30.8946667 37.1886667,30.673 37.366,30.491 C37.5433333,30.309 37.7416667,30.1713333 37.961,30.078 C38.1803333,29.9846667 38.4113333,29.938 38.654,29.938 C39.186,29.938 39.599,30.1176667 39.893,30.477 C40.187,30.8363333 40.334,31.3613333 40.334,32.052 L40.334,32.052 Z M47.04,36 L47.04,31.198 C47.04,30.7126667 47.0236667,30.2296667 46.991,29.749 C46.9583333,29.2683333 46.9233333,28.7946667 46.886,28.328 L46.886,28.328 L46.942,28.328 L47.936,30.218 L51.268,36 L52.472,36 L52.472,26.816 L51.366,26.816 L51.366,31.562 C51.366,32.0473333 51.3823333,32.5396667 51.415,33.039 C51.4476667,33.5383333 51.478,34.0213333 51.506,34.488 L51.506,34.488 L51.45,34.488 L50.456,32.584 L47.138,26.816 L45.934,26.816 L45.934,36 L47.04,36 Z M56.448,36.168 C56.8773333,36.168 57.2786667,36.0723333 57.652,35.881 C58.0253333,35.6896667 58.3753333,35.4586667 58.702,35.188 L58.702,35.188 L58.744,35.188 L58.842,36 L59.794,36 L59.794,31.828 C59.794,30.9786667 59.6073333,30.2996667 59.234,29.791 C58.8606667,29.2823333 58.2586667,29.028 57.428,29.028 C56.8773333,29.028 56.3733333,29.1236667 55.916,29.315 C55.4586667,29.5063333 55.0713333,29.7046667 54.754,29.91 L54.754,29.91 L55.202,30.708 C55.4726667,30.5213333 55.7806667,30.3533333 56.126,30.204 C56.4713333,30.0546667 56.84,29.98 57.232,29.98 C57.512,29.98 57.743,30.029 57.925,30.127 C58.107,30.225 58.2493333,30.3533333 58.352,30.512 C58.4546667,30.6706667 58.527,30.8526667 58.569,31.058 C58.611,31.2633333 58.632,31.4733333 58.632,31.688 C57.176,31.8466667 56.1166667,32.1243333 55.454,32.521 C54.7913333,32.9176667 54.46,33.4893333 54.46,34.236 C54.46,34.852 54.649,35.328 55.027,35.664 C55.405,36 55.8786667,36.168 56.448,36.168 Z M56.784,35.244 C56.448,35.244 56.1633333,35.16 55.93,34.992 C55.6966667,34.824 55.58,34.544 55.58,34.152 C55.58,33.9373333 55.6336667,33.739 55.741,33.557 C55.8483333,33.375 56.021,33.214 56.259,33.074 C56.497,32.934 56.8096667,32.8126667 57.197,32.71 C57.5843333,32.6073333 58.0626667,32.5186667 58.632,32.444 L58.632,32.444 L58.632,34.334 C58.3053333,34.6326667 57.9973333,34.859 57.708,35.013 C57.4186667,35.167 57.1106667,35.244 56.784,35.244 Z M63.084,36 L63.084,31.072 C63.7093333,30.372 64.2786667,30.022 64.792,30.022 C65.2306667,30.022 65.5526667,30.1643333 65.758,30.449 C65.9633333,30.7336667 66.066,31.198 66.066,31.842 L66.066,31.842 L66.066,36 L67.214,36 L67.214,31.072 C67.8393333,30.372 68.4086667,30.022 68.922,30.022 C69.3513333,30.022 69.6686667,30.1643333 69.874,30.449 C70.0793333,30.7336667 70.182,31.198 70.182,31.842 L70.182,31.842 L70.182,36 L71.33,36 L71.33,31.688 C71.33,30.8106667 71.1596667,30.148 70.819,29.7 C70.4783333,29.252 69.958,29.028 69.258,29.028 C68.838,29.028 68.4483333,29.147 68.089,29.385 C67.7296667,29.623 67.3726667,29.938 67.018,30.33 C66.878,29.9193333 66.661,29.5996667 66.367,29.371 C66.073,29.1423333 65.6646667,29.028 65.142,29.028 C64.7313333,29.028 64.351,29.1376667 64.001,29.357 C63.651,29.5763333 63.3266667,29.8493333 63.028,30.176 L63.028,30.176 L62.986,30.176 L62.888,29.196 L61.936,29.196 L61.936,36 L63.084,36 Z M76.3,36.168 C76.7666667,36.168 77.182,36.098 77.546,35.958 C77.91,35.818 78.2413333,35.6546667 78.54,35.468 L78.54,35.468 L78.134,34.712 C77.882,34.8706667 77.6183333,34.999 77.343,35.097 C77.0676667,35.195 76.7666667,35.244 76.44,35.244 C75.7866667,35.244 75.257,35.0316667 74.851,34.607 C74.445,34.1823333 74.2186667,33.606 74.172,32.878 L74.172,32.878 L78.764,32.878 C78.7826667,32.794 78.7943333,32.6936667 78.799,32.577 C78.8036667,32.4603333 78.806,32.3413333 78.806,32.22 C78.806,31.7346667 78.7453333,31.296 78.624,30.904 C78.5026667,30.512 78.3276667,30.176 78.099,29.896 C77.8703333,29.616 77.5856667,29.4013333 77.245,29.252 C76.9043333,29.1026667 76.5193333,29.028 76.09,29.028 C75.698,29.028 75.32,29.1096667 74.956,29.273 C74.592,29.4363333 74.2676667,29.672 73.983,29.98 C73.6983333,30.288 73.4696667,30.6636667 73.297,31.107 C73.1243333,31.5503333 73.038,32.052 73.038,32.612 C73.038,33.172 73.122,33.6713333 73.29,34.11 C73.458,34.5486667 73.689,34.9196667 73.983,35.223 C74.277,35.5263333 74.6223333,35.7596667 75.019,35.923 C75.4156667,36.0863333 75.8426667,36.168 76.3,36.168 Z M77.798,32.052 L74.158,32.052 C74.1953333,31.716 74.2723333,31.4173333 74.389,31.156 C74.5056667,30.8946667 74.6526667,30.673 74.83,30.491 C75.0073333,30.309 75.2056667,30.1713333 75.425,30.078 C75.6443333,29.9846667 75.8753333,29.938 76.118,29.938 C76.65,29.938 77.063,30.1176667 77.357,30.477 C77.651,30.8363333 77.798,31.3613333 77.798,32.052 L77.798,32.052 Z" id="FileName" fill="#1F282C" fill-rule="nonzero"></path>
            </g>
            <g id="Group-12" transform="translate(16.000000, 128.000000)">
                <g id="Tag---Important" transform="translate(0.000000, 26.000000)">
                    <path d="M2,0 L15,0 C16.1045695,-2.02906125e-16 17,0.8954305 17,2 L17,16 C17,17.1045695 16.1045695,18 15,18 L2,18 C0.8954305,18 1.3527075e-16,17.1045695 0,16 L0,2 C-1.3527075e-16,0.8954305 0.8954305,2.02906125e-16 2,0 Z" id="Tag---Background---Important" fill="#007DB8"></path>
                    <path d="M7.892,13.144 C8.244,13.144 8.582,13.086 8.906,12.97 C9.23,12.854 9.516,12.684 9.764,12.46 C10.012,12.236 10.21,11.96 10.358,11.632 C10.506,11.304 10.58,10.932 10.58,10.516 C10.58,10.108 10.516,9.754 10.388,9.454 C10.26,9.154 10.088,8.906 9.872,8.71 C9.656,8.514 9.402,8.368 9.11,8.272 C8.818,8.176 8.508,8.128 8.18,8.128 C7.98,8.128 7.802,8.15 7.646,8.194 C7.49,8.238 7.332,8.3 7.172,8.38 L7.172,8.38 L7.328,6.532 L10.208,6.532 L10.208,5.368 L6.128,5.368 L5.9,9.136 L6.56,9.556 C6.792,9.404 6.992,9.294 7.16,9.226 C7.328,9.158 7.536,9.124 7.784,9.124 C8.208,9.124 8.548,9.248 8.804,9.496 C9.06,9.744 9.188,10.096 9.188,10.552 C9.188,11.016 9.05,11.376 8.774,11.632 C8.498,11.888 8.144,12.016 7.712,12.016 C7.328,12.016 6.992,11.934 6.704,11.77 C6.416,11.606 6.156,11.416 5.924,11.2 L5.924,11.2 L5.288,12.088 C5.568,12.368 5.918,12.614 6.338,12.826 C6.758,13.038 7.276,13.144 7.892,13.144 Z" id="5" fill="#FFFFFF" fill-rule="nonzero"></path>
                </g>
                <rect id="Rectangle" fill="#007DB8" x="8" y="0" width="1" height="26"></rect>
            </g>
            <g id="Group-11" transform="translate(801.000000, 0.000000)">
                <g id="Tag---Important">
                    <path d="M2,0 L15,0 C16.1045695,-2.02906125e-16 17,0.8954305 17,2 L17,16 C17,17.1045695 16.1045695,18 15,18 L2,18 C0.8954305,18 1.3527075e-16,17.1045695 0,16 L0,2 C-1.3527075e-16,0.8954305 0.8954305,2.02906125e-16 2,0 Z" id="Tag---Background---Important" fill="#007DB8"></path>
                    <path d="M9.884,13 L9.884,11.032 L10.844,11.032 L10.844,9.964 L9.884,9.964 L9.884,5.368 L8.24,5.368 L5.216,10.096 L5.216,11.032 L8.588,11.032 L8.588,13 L9.884,13 Z M8.588,9.964 L6.584,9.964 L7.976,7.84 C8.088,7.632 8.196,7.432 8.3,7.24 C8.404,7.048 8.504,6.852 8.6,6.652 L8.6,6.652 L8.648,6.652 C8.632,6.876 8.618,7.14 8.606,7.444 C8.594,7.748 8.588,8.012 8.588,8.236 L8.588,8.236 L8.588,9.964 Z" id="4" fill="#FFFFFF" fill-rule="nonzero"></path>
                </g>
                <rect id="Rectangle" fill="#007DB8" x="8" y="18" width="1" height="55"></rect>
            </g>
            <g id="Group-10" transform="translate(760.000000, 0.000000)">
                <g id="Tag---Important">
                    <path d="M2,0 L15,0 C16.1045695,-2.02906125e-16 17,0.8954305 17,2 L17,16 C17,17.1045695 16.1045695,18 15,18 L2,18 C0.8954305,18 1.3527075e-16,17.1045695 0,16 L0,2 C-1.3527075e-16,0.8954305 0.8954305,2.02906125e-16 2,0 Z" id="Tag---Background---Important" fill="#007DB8"></path>
                    <path d="M7.88,13.144 C8.248,13.144 8.594,13.094 8.918,12.994 C9.242,12.894 9.526,12.75 9.77,12.562 C10.014,12.374 10.206,12.144 10.346,11.872 C10.486,11.6 10.556,11.288 10.556,10.936 C10.556,10.432 10.406,10.02 10.106,9.7 C9.806,9.38 9.428,9.16 8.972,9.04 L8.972,9.04 L8.972,8.992 C9.388,8.832 9.714,8.608 9.95,8.32 C10.186,8.032 10.304,7.672 10.304,7.24 C10.304,6.92 10.244,6.634 10.124,6.382 C10.004,6.13 9.836,5.918 9.62,5.746 C9.404,5.574 9.144,5.444 8.84,5.356 C8.536,5.268 8.2,5.224 7.832,5.224 C7.376,5.224 6.962,5.312 6.59,5.488 C6.218,5.664 5.868,5.896 5.54,6.184 L5.54,6.184 L6.248,7.036 C6.48,6.82 6.718,6.646 6.962,6.514 C7.206,6.382 7.48,6.316 7.784,6.316 C8.136,6.316 8.412,6.406 8.612,6.586 C8.812,6.766 8.912,7.016 8.912,7.336 C8.912,7.512 8.878,7.676 8.81,7.828 C8.742,7.98 8.63,8.11 8.474,8.218 C8.318,8.326 8.114,8.41 7.862,8.47 C7.61,8.53 7.296,8.56 6.92,8.56 L6.92,8.56 L6.92,9.568 C7.352,9.568 7.712,9.598 8,9.658 C8.288,9.718 8.518,9.804 8.69,9.916 C8.862,10.028 8.984,10.164 9.056,10.324 C9.128,10.484 9.164,10.664 9.164,10.864 C9.164,11.224 9.034,11.506 8.774,11.71 C8.514,11.914 8.176,12.016 7.76,12.016 C7.376,12.016 7.036,11.934 6.74,11.77 C6.444,11.606 6.18,11.408 5.948,11.176 L5.948,11.176 L5.288,12.064 C5.56,12.368 5.904,12.624 6.32,12.832 C6.736,13.04 7.256,13.144 7.88,13.144 Z" id="3" fill="#FFFFFF" fill-rule="nonzero"></path>
                </g>
                <rect id="Rectangle" fill="#007DB8" x="8" y="18" width="1" height="30"></rect>
            </g>
            <g id="Group-5" transform="translate(16.000000, 0.000000)">
                <g id="Tag---Important">
                    <path d="M2,0 L15,0 C16.1045695,-2.02906125e-16 17,0.8954305 17,2 L17,16 C17,17.1045695 16.1045695,18 15,18 L2,18 C0.8954305,18 1.3527075e-16,17.1045695 0,16 L0,2 C-1.3527075e-16,0.8954305 0.8954305,2.02906125e-16 2,0 Z" id="Tag---Background---Important" fill="#007DB8"></path>
                    <path d="M10.484,13 L10.484,11.872 L8.984,11.872 L8.984,5.368 L7.952,5.368 C7.712,5.512 7.454,5.634 7.178,5.734 C6.902,5.834 6.572,5.92 6.188,5.992 L6.188,5.992 L6.188,6.856 L7.592,6.856 L7.592,11.872 L5.888,11.872 L5.888,13 L10.484,13 Z" id="1" fill="#FFFFFF" fill-rule="nonzero"></path>
                </g>
                <rect id="Rectangle" fill="#007DB8" x="8" y="18" width="1" height="30"></rect>
            </g>
            <g id="Group-5" transform="translate(411.000000, 0.000000)">
                <g id="Tag---Important">
                    <path d="M2,0 L15,0 C16.1045695,-2.02906125e-16 17,0.8954305 17,2 L17,16 C17,17.1045695 16.1045695,18 15,18 L2,18 C0.8954305,18 1.3527075e-16,17.1045695 0,16 L0,2 C-1.3527075e-16,0.8954305 0.8954305,2.02906125e-16 2,0 Z" id="Tag---Background---Important" fill="#007DB8"></path>
                    <path d="M10.616,13 L10.616,11.824 L8.744,11.824 C8.56,11.824 8.352,11.834 8.12,11.854 C7.888,11.874 7.672,11.892 7.472,11.908 C7.848,11.508 8.204,11.12 8.54,10.744 C8.876,10.368 9.17,10.002 9.422,9.646 C9.674,9.29 9.874,8.938 10.022,8.59 C10.17,8.242 10.244,7.9 10.244,7.564 C10.244,7.212 10.186,6.892 10.07,6.604 C9.954,6.316 9.792,6.07 9.584,5.866 C9.376,5.662 9.124,5.504 8.828,5.392 C8.532,5.28 8.2,5.224 7.832,5.224 C7.304,5.224 6.854,5.326 6.482,5.53 C6.11,5.734 5.748,6.024 5.396,6.4 L5.396,6.4 L6.164,7.168 C6.372,6.936 6.598,6.736 6.842,6.568 C7.086,6.4 7.356,6.316 7.652,6.316 C8.06,6.316 8.372,6.434 8.588,6.67 C8.804,6.906 8.912,7.228 8.912,7.636 C8.912,7.924 8.832,8.228 8.672,8.548 C8.512,8.868 8.282,9.212 7.982,9.58 C7.682,9.948 7.318,10.348 6.89,10.78 C6.462,11.212 5.984,11.684 5.456,12.196 L5.456,12.196 L5.456,13 L10.616,13 Z" id="2" fill="#FFFFFF" fill-rule="nonzero"></path>
                </g>
                <rect id="Rectangle" fill="#007DB8" x="8" y="18" width="1" height="55"></rect>
            </g>
        </g>
    </g>
</svg>